<svg version="1.2" xmlns="http://www.w3.org/2000/svg" viewBox="0 0 505 505" width="505" height="505"><defs><clipPath clipPathUnits="userSpaceOnUse" id="cp1"><path d="m0 0h504.8v504.8h-504.8z"/></clipPath></defs><style>.a{fill:#e8493f}.b{fill:#fff}</style><path class="a" d="m0 0h504.8v504.8h-504.8z"/><g clip-path="url(#cp1)"><path fill-rule="evenodd" class="b" d="m59.7 292.7q11.4 0 14.1-9.4l1-1h11.2l1 1q-1.4 9.7-8.7 15.2-7.2 5.4-18.6 5.4-15.1 0-23.6-9.3-8.3-9.3-8.3-24.5 0-15.2 8.3-24.5 8.5-9.3 23.6-9.3 11.3 0 18.5 5.2 7.4 5.3 8.8 14.5l-1 0.9h-11.2l-1-0.9q-2.8-8.5-14.1-8.5-9.5 0-14.2 6.2-4.6 6.1-4.6 16.4 0 10.3 4.6 16.5 4.7 6.1 14.2 6.1zm77.6 0v9.4l-1 0.9h-42.3l-0.9-0.9v-64l0.9-0.9h11.3l0.9 0.9v52.7l1 0.9h29.1zm49.4 0v9.4l-1 1h-44.1l-1-1v-63.9l1-0.9h44.1l1 0.9v9.4l-1 0.9h-31l-0.9 1v13.1l0.9 1h29.2l0.9 0.9v9.4l-0.9 1h-29.2l-0.9 0.9v15l0.9 1h31zm58.8-54.5v9.4l-20.7 54.5-0.9 0.9h-12.3l-0.9-0.9-20.7-54.5v-9.4l1-1h8.4l1 1 16.9 46h0.9l16.9-46 1-1h8.4zm51.3 54.5v9.4l-1 1h-44.1l-1-1v-63.9l1-0.9h44.1l1 0.9v9.4l-1 1h-31l-0.9 0.9v13.2l0.9 0.9h29.2l0.9 0.9v9.4l-0.9 1h-29.2l-0.9 0.9v15.1l0.9 0.9h31zm62.6-35.7q0 7.4-4.1 12.4-4 4.9-10 6.4v0.9l12.2 16v9.4l-1 0.9h-5.6l-1.9-0.9-18.8-24.4-1.9-1h-9.4l-0.9 1v24.4l-0.9 0.9h-11.3l-1-0.9v-63.9l1-1h31q10.2 0 16.3 5.1 6.3 5.1 6.3 14.7zm-15.7 6.6q2.5-1.9 2.5-6.6 0-4.7-2.5-6.6-2.3-1.9-6.9-1.9h-17.9l-0.9 1v15l0.9 0.9h17.9q4.6 0 6.9-1.8zm27.4 6.5q-5.6-5.6-5.6-14.1 0-8.4 5.6-14.1 5.6-5.6 14.1-5.6 8.5 0 14.1 5.6 5.6 5.7 5.6 14.1 0 8.5-5.6 14.1-5.6 5.7-14.1 5.7-8.5 0-14.1-5.7zm14.1-22.5q-7.5 0-7.5 8.4 0 8.5 7.5 8.5 7.5 0 7.5-8.5 0-8.4-7.5-8.4zm-309.3 128.1v9.4l-0.9 0.9h-42.3l-0.9-0.9v-63.9l0.9-1h11.3l0.9 1v52.6l1 1h29.1zm52.8-47q8.8 9.4 8.8 24.4 0 15-8.8 24.4-8.6 9.4-23.2 9.4-14.6 0-23.3-9.4-8.7-9.4-8.7-24.4 0-15 8.7-24.4 8.7-9.4 23.3-9.4 14.6 0 23.2 9.4zm-9.4 40.8q5-6.2 5-16.4 0-10.2-5-16.4-4.9-6.2-13.8-6.2-8.9 0-13.9 6.2-4.9 6.2-4.9 16.4 0 10.2 4.9 16.4 5 6.2 13.9 6.2 8.9 0 13.8-6.2zm52.5 6.2q11.4 0 14.1-9.4l0.9-1h11.3l0.9 1q-1.4 9.7-8.6 15.2-7.2 5.4-18.6 5.4-15.2 0-23.6-9.3-8.4-9.3-8.4-24.5 0-15.2 8.4-24.5 8.4-9.3 23.6-9.3 11.3 0 18.5 5.2 7.3 5.3 8.7 14.5l-0.9 0.9h-11.3l-0.9-0.9q-2.8-8.5-14.1-8.5-9.5 0-14.2 6.2-4.6 6.1-4.6 16.4 0 10.3 4.6 16.5 4.7 6.1 14.2 6.1zm84.1 0v9.4l-0.9 0.9h-8.5l-0.9-0.9-4.7-12.3-1.9-0.9h-23.5l-1.9 0.9-4.7 12.3-0.9 0.9h-8.5l-0.9-0.9v-9.4l21.6-54.6 0.9-0.9h12.2l1 0.9zm-20.7-15l0.9-0.9-8.4-22.6h-1l-8.4 22.6 0.9 0.9zm68.2-39.5v9.4l-1 1h-18.8l-0.9 0.9v52.6l-0.9 1h-11.3l-1-1v-52.6l-0.9-0.9h-18.8l-0.9-1v-9.4l0.9-0.9h52.6zm17.4 0v63.9l-0.9 0.9h-11.3l-0.9-0.9v-63.9l0.9-1h11.3zm61.3 7.6q8.7 9.4 8.7 24.4 0 15-8.7 24.4-8.7 9.4-23.2 9.4-14.6 0-23.4-9.4-8.6-9.4-8.6-24.4 0-15 8.6-24.4 8.8-9.4 23.4-9.4 14.5 0 23.2 9.4zm-9.4 40.8q5-6.2 5-16.4 0-10.2-5-16.4-4.9-6.2-13.8-6.2-9 0-14 6.2-4.8 6.2-4.8 16.4 0 10.2 4.8 16.4 5 6.2 14 6.2 8.9 0 13.8-6.2zm24.2 15.6v-64l1-0.9h13.1l1.9 0.9 25.4 43.3h0.9v-43.3l1-0.9h11.2l1 0.9v64l-1 0.9h-13.1l-1.9-0.9-25.4-43.3h-0.9v43.3l-1 0.9h-11.2zm78.5-63.9v27.2l-1 1h-11.3l-0.9-1v-27.2l0.9-1h11.3z"/></g></svg>